<svg xmlns="http://www.w3.org/2000/svg" width="84" height="86" viewBox="0 0 84 86">
  <g id="trash" transform="translate(-151.5 -287)">
    <g id="Rectangle_1" data-name="Rectangle 1" transform="translate(162 299)" fill="none" stroke="#e7e7e7" stroke-width="6">
      <path d="M0,0H63a0,0,0,0,1,0,0V68a6,6,0,0,1-6,6H6a6,6,0,0,1-6-6V0A0,0,0,0,1,0,0Z" stroke="none"/>
      <rect x="3" y="3" width="57" height="68" rx="3" fill="none"/>
    </g>
    <line id="Ligne_1" data-name="Ligne 1" x2="78" transform="translate(154.5 301.5)" fill="none" stroke="#e7e7e7" stroke-linecap="round" stroke-width="6"/>
    <g id="Rectangle_2" data-name="Rectangle 2" transform="translate(177 287)" fill="none" stroke="#e7e7e7" stroke-linejoin="round" stroke-width="6">
      <path d="M2,0H31a2,2,0,0,1,2,2V18a0,0,0,0,1,0,0H0a0,0,0,0,1,0,0V2A2,2,0,0,1,2,0Z" stroke="none"/>
      <path d="M4,3H29a1,1,0,0,1,1,1v8a3,3,0,0,1-3,3H6a3,3,0,0,1-3-3V4A1,1,0,0,1,4,3Z" fill="none"/>
    </g>
  </g>
</svg>
